<!-- @formatter:off -->
<svg xmlns="http://www.w3.org/2000/svg" xmlns:xlink="http://www.w3.org/1999/xlink">
    <defs>
         <svg id="plus" width="18" height="18" viewBox="0 0 18 18" fill="none" xmlns="http://www.w3.org/2000/svg">
            <path
              d="M17.625 7.875H10.125V0.375C10.125 0.1875 9.9375 0 9.75 0H8.25C8.01562 0 7.875 0.1875 7.875 0.375V7.875H0.375C0.140625 7.875 0 8.0625 0 8.25V9.75C0 9.98438 0.140625 10.125 0.375 10.125H7.875V17.625C7.875 17.8594 8.01562 18 8.25 18H9.75C9.9375 18 10.125 17.8594 10.125 17.625V10.125H17.625C17.8125 10.125 18 9.98438 18 9.75V8.25C18 8.0625 17.8125 7.875 17.625 7.875Z"
              fill="#07B0FB" />
          </svg>
          <svg id="minus" width="18" height="4" viewBox="0 0 18 4" fill="none" xmlns="http://www.w3.org/2000/svg">
            <path d="M17.625 0.875H0.375C0.140625 0.875 0 1.0625 0 1.25V2.75C0 2.98438 0.140625 3.125 0.375 3.125H17.625C17.8125 3.125 18 2.98438 18 2.75V1.25C18 1.0625 17.8125 0.875 17.625 0.875Z" fill="#07B0FB"/>
          </svg>
          <svg id="down" width="14" height="8" viewBox="0 0 14 8" fill="none" xmlns="http://www.w3.org/2000/svg">
            <path d="M6.57812 7.32812C6.8125 7.5625 7.14062 7.5625 7.375 7.32812L12.8125 1.84375C13.0469 1.60938 13.0469 1.23438 12.8125 1.04688L12.4844 0.71875C12.25 0.484375 11.9219 0.484375 11.6875 0.71875L7 5.5L2.26562 0.671875C2.03125 0.484375 1.70312 0.484375 1.46875 0.671875L1.14062 1.04688C0.90625 1.23438 0.90625 1.60938 1.14062 1.84375L6.57812 7.32812Z" fill="#E54E4E"/>
          </svg>
          <svg id="up" width="14" height="8" viewBox="0 0 14 8" fill="none" xmlns="http://www.w3.org/2000/svg">
            <path d="M7.375 0.71875C7.14062 0.484375 6.8125 0.484375 6.57812 0.671875L1.14062 6.20312C0.90625 6.4375 0.90625 6.8125 1.14062 7L1.46875 7.32812C1.70312 7.5625 2.03125 7.5625 2.26562 7.32812L7 2.54688L11.6875 7.32812C11.9219 7.5625 12.25 7.5625 12.4844 7.32812L12.8125 7C13.0469 6.8125 13.0469 6.4375 12.8125 6.20312L7.375 0.71875Z" fill="#69C669"/>
          </svg>
    </defs>
</svg>
