<!-- @formatter:off -->
<svg xmlns="http://www.w3.org/2000/svg" xmlns:xlink="http://www.w3.org/1999/xlink">
    <defs>
         <svg id="plus" width="18" height="18" viewBox="0 0 18 18" fill="none" xmlns="http://www.w3.org/2000/svg">
            <path
              d="M17.625 7.875H10.125V0.375C10.125 0.1875 9.9375 0 9.75 0H8.25C8.01562 0 7.875 0.1875 7.875 0.375V7.875H0.375C0.140625 7.875 0 8.0625 0 8.25V9.75C0 9.98438 0.140625 10.125 0.375 10.125H7.875V17.625C7.875 17.8594 8.01562 18 8.25 18H9.75C9.9375 18 10.125 17.8594 10.125 17.625V10.125H17.625C17.8125 10.125 18 9.98438 18 9.75V8.25C18 8.0625 17.8125 7.875 17.625 7.875Z"
              fill="#07B0FB" />
          </svg>
          <svg id="minus" width="18" height="4" viewBox="0 0 18 4" fill="none" xmlns="http://www.w3.org/2000/svg">
            <path d="M17.625 0.875H0.375C0.140625 0.875 0 1.0625 0 1.25V2.75C0 2.98438 0.140625 3.125 0.375 3.125H17.625C17.8125 3.125 18 2.98438 18 2.75V1.25C18 1.0625 17.8125 0.875 17.625 0.875Z" fill="#07B0FB"/>
          </svg>
    </defs>
</svg>
